<?xml version="1.0" standalone="no"?>
<!DOCTYPE svg PUBLIC "-//W3C//DTD SVG 20010904//EN"
 "http://www.w3.org/TR/2001/REC-SVG-20010904/DTD/svg10.dtd">
<svg version="1.0" xmlns="http://www.w3.org/2000/svg"
 width="500.000000pt" height="500.000000pt" viewBox="0 0 500.000000 500.000000"
 preserveAspectRatio="xMidYMid meet">
<metadata>
Created by potrace 1.16, written by Peter Selinger 2001-2019
</metadata>
<g transform="translate(0.000000,500.000000) scale(0.100000,-0.100000)"
fill="#000000" stroke="none">
<path d="M2790 4131 c-50 -10 -73 -25 -113 -71 -62 -73 -72 -147 -29 -231 22
-44 36 -58 81 -81 149 -77 324 20 324 180 0 33 -7 70 -16 88 -27 53 -89 101
-146 113 -29 6 -55 10 -59 10 -4 -1 -23 -4 -42 -8z m154 -59 c53 -37 76 -84
76 -152 0 -43 -6 -64 -25 -93 -52 -76 -159 -102 -242 -59 -99 52 -124 191 -49
277 60 69 164 81 240 27z"/>
<path d="M3510 4001 c-146 -32 -249 -142 -266 -284 -5 -43 -11 -57 -28 -65
-42 -19 -85 -63 -91 -94 -11 -48 19 -68 100 -68 64 0 64 0 117 -53 71 -71 143
-100 250 -99 93 0 162 28 233 93 58 53 85 105 92 176 6 52 8 56 63 98 121 93
100 155 -52 155 -46 0 -53 3 -96 48 -26 26 -68 58 -95 70 -52 24 -168 36 -227
23z m215 -58 c79 -42 143 -131 160 -224 6 -31 3 -39 -17 -53 -21 -16 -21 -17
-3 -14 17 3 20 -2 17 -32 -9 -88 -79 -183 -165 -221 -74 -33 -193 -33 -257 0
-56 29 -110 69 -110 81 0 6 15 17 33 25 l32 14 -49 -2 -50 -2 -17 45 c-23 57
-24 153 -3 214 24 69 104 151 174 176 73 27 196 23 255 -7z"/>
<path d="M1200 3986 c-99 -29 -184 -87 -238 -165 -37 -52 -72 -133 -72 -166 0
-8 -30 -30 -67 -49 -103 -52 -153 -113 -153 -187 0 -78 45 -101 199 -100 99 0
105 -1 123 -24 49 -63 166 -118 276 -130 70 -8 174 14 245 52 102 56 206 206
215 309 4 50 7 55 39 70 44 22 130 99 148 135 24 46 19 84 -15 113 -44 36
-140 51 -228 34 -41 -7 -47 -5 -86 27 -75 61 -147 88 -250 91 -55 2 -109 -2
-136 -10z m236 -42 c58 -16 142 -74 180 -125 30 -40 64 -103 64 -119 0 -14
-94 -57 -260 -120 -229 -87 -464 -150 -484 -130 -7 7 -11 52 -11 118 1 98 3
112 31 172 51 108 165 195 286 219 51 10 123 5 194 -15z m414 -114 c34 -17 40
-25 40 -52 0 -50 -76 -116 -202 -176 -109 -52 -494 -186 -638 -223 -123 -31
-228 -36 -285 -15 -75 29 -80 66 -21 139 30 38 101 87 124 87 20 0 13 -28 -7
-35 -11 -3 -34 -19 -50 -35 -41 -37 -41 -72 0 -101 28 -20 39 -21 113 -16 195
15 752 216 848 307 43 42 51 82 19 100 -11 5 -44 10 -75 10 -54 0 -83 14 -49
23 50 13 145 6 183 -13z m-189 -395 c-64 -137 -185 -224 -326 -233 -45 -3 -94
0 -122 8 -66 18 -153 63 -182 93 l-23 26 43 11 c80 19 533 170 584 194 l50 23
3 -29 c2 -17 -9 -56 -27 -93z"/>
<path d="M2360 3880 c-9 -33 -15 -40 -36 -40 -70 0 -86 -48 -26 -79 33 -17 37
-23 37 -56 0 -54 25 -68 62 -33 22 20 33 24 50 17 17 -6 23 -4 28 11 4 11 4
24 1 29 -4 5 7 19 24 31 49 35 35 80 -26 80 -26 0 -33 5 -39 27 -16 66 -59 73
-75 13z"/>
<path d="M2111 3441 c-45 -4 -67 -11 -75 -23 -14 -24 18 -58 56 -58 l28 0 0
-88 c0 -63 4 -94 16 -110 19 -27 28 -28 54 -2 17 17 20 33 20 110 l0 90 28 0
c34 0 52 16 52 47 0 40 -34 47 -179 34z"/>
<path d="M2397 3432 c-14 -15 -17 -41 -17 -139 0 -104 2 -122 19 -137 34 -31
56 -8 63 69 3 28 5 30 48 30 l45 0 5 -49 c6 -56 30 -81 54 -56 11 11 15 47 17
143 3 109 0 130 -14 145 -28 27 -51 5 -55 -52 l-3 -46 -50 0 -49 0 0 43 c0 63
-30 86 -63 49z"/>
<path d="M2766 3435 c-13 -13 -16 -40 -16 -139 0 -150 4 -156 101 -156 74 0
112 19 107 53 -3 20 -10 22 -65 25 -55 3 -63 6 -63 22 0 16 7 20 38 20 41 0
62 14 62 42 0 22 -29 38 -69 38 -20 0 -31 5 -31 15 0 10 15 15 56 17 64 3 88
23 68 56 -16 25 -164 30 -188 7z"/>
<path d="M1813 3293 c-7 -2 -13 -11 -13 -19 0 -7 -11 -21 -25 -30 -30 -19 -33
-54 -6 -61 11 -3 21 -15 23 -27 4 -29 66 -30 82 -1 6 10 20 26 30 35 22 19 16
49 -12 57 -10 2 -22 14 -27 26 -10 22 -30 30 -52 20z"/>
<path d="M676 3188 c-9 -12 -16 -29 -16 -38 0 -36 -30 -60 -74 -60 -80 0 -95
-50 -29 -98 26 -19 28 -26 28 -89 0 -63 2 -68 22 -71 12 -2 39 8 60 22 21 14
41 26 46 26 4 0 25 -12 46 -26 53 -34 85 -30 89 13 2 18 -1 48 -6 67 -9 33 -8
36 29 66 63 51 50 86 -36 92 -49 3 -49 3 -62 47 -7 24 -18 49 -24 57 -17 21
-56 17 -73 -8z m59 -71 c10 -59 19 -67 84 -67 l56 -1 -27 -22 c-15 -12 -36
-29 -48 -37 -20 -15 -20 -16 -4 -58 10 -23 15 -45 11 -48 -3 -3 -23 7 -46 21
l-40 27 -51 -31 c-55 -34 -59 -30 -35 38 l14 41 -45 30 c-24 17 -42 35 -39 41
4 5 30 9 60 9 52 0 54 1 60 33 19 87 38 96 50 24z"/>
<path d="M1137 2966 c-107 -29 -172 -121 -172 -241 1 -83 23 -132 84 -188 47
-42 75 -52 151 -52 104 1 190 75 145 125 -21 23 -50 25 -85 5 -14 -8 -41 -14
-60 -14 -97 -1 -159 103 -115 190 33 62 106 84 180 53 33 -14 39 -14 61 1 16
10 24 25 24 44 0 65 -111 105 -213 77z"/>
<path d="M1489 2970 c-23 -13 -33 -160 -24 -330 8 -132 16 -160 51 -160 33 0
54 38 54 100 0 85 21 82 95 -14 56 -74 71 -86 104 -86 22 0 51 31 51 54 0 9
-17 35 -38 59 -69 78 -68 70 -23 127 49 62 54 111 18 174 -34 61 -91 86 -191
86 -45 0 -88 -5 -97 -10z"/>
<path d="M1957 2973 c-31 -8 -35 -44 -30 -252 5 -156 9 -206 20 -217 11 -10
44 -14 133 -14 116 0 120 1 136 25 15 23 15 27 0 50 -14 22 -24 25 -70 25 -29
0 -68 3 -85 6 -27 6 -31 10 -31 40 l0 34 53 0 c91 0 134 43 88 89 -17 17 -34
21 -81 21 l-60 0 0 45 0 45 83 0 c90 0 117 13 117 58 0 40 -35 52 -150 51 -58
-1 -113 -3 -123 -6z"/>
<path d="M2473 2960 c-17 -19 -111 -249 -154 -374 -18 -53 -19 -60 -4 -82 29
-44 82 -19 105 51 l12 35 76 0 77 0 19 -46 c24 -57 54 -74 92 -50 22 15 25 22
20 51 -12 60 -147 410 -164 423 -24 18 -60 15 -79 -8z"/>
<path d="M2749 2959 c-14 -14 -18 -27 -13 -42 11 -38 25 -47 75 -47 l49 0 0
-159 c0 -89 5 -172 11 -190 14 -39 51 -51 79 -26 18 17 20 32 20 197 l0 178
43 0 c48 0 59 6 76 38 10 19 10 28 -4 48 -15 24 -18 24 -165 24 -138 0 -152
-2 -171 -21z"/>
<path d="M3296 2966 c-56 -21 -86 -45 -122 -98 -119 -175 50 -430 245 -372 54
16 117 76 151 143 40 81 24 200 -38 264 -60 63 -162 90 -236 63z m131 -126
c41 -25 55 -51 55 -107 0 -56 -23 -91 -77 -117 l-38 -19 -44 23 c-49 26 -83
79 -83 131 0 48 65 109 116 109 22 0 53 -9 71 -20z"/>
<path d="M3717 2962 c-15 -16 -17 -48 -17 -234 0 -202 1 -216 20 -233 17 -15
24 -16 45 -7 30 14 45 48 45 102 0 21 4 41 9 45 6 3 31 -25 57 -62 57 -81 70
-93 104 -93 62 0 66 54 10 129 -22 29 -40 56 -40 60 0 4 12 18 26 32 88 82 69
204 -40 255 -67 31 -193 34 -219 6z"/>
<path d="M1765 2280 c-18 -19 -17 -22 9 -88 15 -37 51 -114 79 -172 49 -98 54
-105 84 -108 37 -4 39 0 98 148 21 52 42 100 46 106 5 6 15 29 23 51 13 36 13
44 0 62 -18 26 -55 27 -77 4 -8 -10 -31 -58 -50 -108 -19 -49 -38 -89 -42 -88
-4 1 -25 44 -46 95 -49 118 -82 144 -124 98z"/>
<path d="M2507 2293 c-40 -7 -46 -33 -46 -195 1 -185 3 -188 105 -188 92 0
139 19 161 65 19 41 10 99 -18 119 -19 13 -20 16 -5 44 9 17 16 41 16 52 0 28
-26 73 -51 88 -22 14 -119 23 -162 15z"/>
<path d="M2930 2293 c-36 -3 -59 -9 -67 -20 -9 -12 -13 -63 -13 -170 0 -194
-1 -193 128 -193 73 0 92 3 105 18 41 45 13 72 -76 72 l-68 0 3 28 c3 25 6 27
46 24 46 -4 92 18 92 43 0 29 -30 45 -86 45 -53 0 -54 0 -54 30 l0 30 68 0
c40 0 73 5 80 12 18 18 15 53 -6 71 -19 17 -30 18 -152 10z"/>
<path d="M2242 2278 c-8 -8 -12 -62 -12 -175 0 -150 2 -165 20 -183 26 -26 34
-25 59 6 19 24 21 40 21 176 0 84 -5 158 -10 169 -12 22 -59 26 -78 7z"/>
<path d="M1426 2204 c-9 -8 -16 -28 -16 -43 0 -33 -13 -46 -57 -55 -31 -7 -48
-29 -37 -48 3 -5 26 -18 50 -28 39 -17 44 -23 44 -53 0 -63 40 -76 71 -22 18
30 24 33 41 24 33 -17 51 -3 45 34 -4 28 -1 35 25 50 21 12 29 23 26 39 -3 20
-10 23 -50 26 -45 3 -49 6 -74 48 -28 47 -43 53 -68 28z"/>
<path d="M3376 1949 c-97 -24 -211 -99 -265 -175 -20 -27 -40 -44 -53 -44 -37
0 -235 -90 -315 -143 -248 -167 -222 -382 54 -443 37 -8 135 -17 218 -21 l149
-6 46 -35 c214 -164 566 -97 678 128 30 58 31 60 148 120 155 79 244 145 290
214 83 125 45 220 -112 278 -51 19 -82 22 -232 24 l-172 2 -47 31 c-78 52
-148 73 -253 77 -52 2 -113 -1 -134 -7z m239 -41 c100 -25 208 -116 261 -221
23 -45 53 -157 54 -198 0 -42 -363 -152 -590 -178 -47 -5 -123 -11 -170 -13
l-84 -3 -18 55 c-50 160 3 349 129 460 116 102 264 136 418 98z m544 -114 c75
-17 144 -59 163 -99 28 -62 -23 -146 -141 -234 -266 -197 -730 -315 -1176
-298 -157 6 -228 18 -297 53 -53 27 -74 52 -89 106 -22 83 66 194 224 282 58
33 186 86 206 86 5 0 1 -21 -9 -47 -15 -41 -24 -49 -70 -70 -81 -36 -146 -88
-170 -138 -21 -44 -21 -45 -3 -82 13 -26 33 -45 67 -62 119 -61 545 -31 846
57 245 73 440 193 440 270 0 59 -88 108 -210 117 -32 2 -48 10 -66 31 -13 16
-23 32 -24 36 -1 22 203 17 309 -8z m-138 -115 c26 -6 57 -21 69 -34 21 -22
21 -24 5 -55 -16 -30 -96 -90 -122 -90 -7 0 -13 12 -13 28 0 24 -15 90 -34
148 -7 24 -1 24 95 3z m-1009 -216 c3 -49 12 -105 21 -125 9 -21 13 -39 9 -42
-13 -7 -134 14 -167 30 -64 30 -62 106 3 153 36 26 114 71 123 71 3 0 9 -39
11 -87z m848 -227 c0 -25 -108 -133 -156 -156 -141 -69 -321 -64 -444 11 -32
20 -33 22 -15 29 11 4 53 10 93 14 133 13 436 80 482 107 23 13 40 11 40 -5z"/>
<path d="M1462 1669 c-143 -71 -194 -206 -131 -349 64 -144 238 -207 381 -137
122 60 183 198 145 328 -48 163 -235 238 -395 158z m194 -12 c179 -46 233
-271 96 -400 -155 -145 -406 -32 -403 181 1 102 60 183 158 218 49 17 86 17
149 1z"/>
<path d="M2284 1619 c-4 -7 -10 -26 -13 -43 -6 -27 -12 -31 -51 -38 -73 -13
-78 -42 -10 -74 37 -18 46 -28 57 -68 18 -60 43 -62 78 -5 17 27 40 46 69 59
74 31 68 76 -11 87 -36 5 -41 9 -54 47 -14 42 -49 61 -65 35z"/>
<path d="M2729 991 c-42 -42 -40 -92 5 -137 56 -56 131 -42 162 32 12 29 12
39 0 68 -30 71 -114 90 -167 37z"/>
</g>
</svg>
